<svg width="33" height="33" viewBox="0 0 33 33" fill="none" xmlns="http://www.w3.org/2000/svg">
<path fill-rule="evenodd" clip-rule="evenodd" d="M23.419 4.125H23.331C22.7279 4.12498 22.2074 4.12497 21.7767 4.15436C21.3232 4.1853 20.8696 4.25337 20.4214 4.439C19.4107 4.85766 18.6077 5.66069 18.189 6.67143C18.0034 7.11958 17.9353 7.57321 17.9044 8.02673C17.875 8.45744 17.875 8.97784 17.875 9.58096V9.66898C17.875 10.2721 17.875 10.7926 17.9044 11.2233C17.9353 11.6768 18.0034 12.1304 18.189 12.5786C18.6077 13.5893 19.4107 14.3923 20.4214 14.811C20.8696 14.9966 21.3232 15.0647 21.7767 15.0956C22.2074 15.125 22.7278 15.125 23.331 15.125H23.419C24.0221 15.125 24.5426 15.125 24.9733 15.0956C25.4268 15.0647 25.8804 14.9966 26.3286 14.811C27.3393 14.3923 28.1423 13.5893 28.561 12.5786C28.7466 12.1304 28.8147 11.6768 28.8456 11.2233C28.875 10.7925 28.875 10.2721 28.875 9.66899V9.58102C28.875 8.97787 28.875 8.45745 28.8456 8.02673C28.8147 7.57321 28.7466 7.11958 28.561 6.67143C28.1423 5.66069 27.3393 4.85766 26.3286 4.439C25.8804 4.25337 25.4268 4.1853 24.9733 4.15436C24.5426 4.12497 24.0221 4.12498 23.419 4.125ZM21.4738 6.97967C21.531 6.95597 21.6504 6.91937 21.9639 6.89798C22.2898 6.87575 22.7155 6.875 23.375 6.875C24.0345 6.875 24.4602 6.87575 24.7861 6.89798C25.0996 6.91937 25.219 6.95597 25.2762 6.97967C25.6131 7.11922 25.8808 7.3869 26.0203 7.72381C26.044 7.78103 26.0806 7.90042 26.102 8.21392C26.1243 8.53977 26.125 8.96552 26.125 9.625C26.125 10.2845 26.1243 10.7102 26.102 11.0361C26.0806 11.3496 26.044 11.469 26.0203 11.5262C25.8808 11.8631 25.6131 12.1308 25.2762 12.2703C25.219 12.294 25.0996 12.3306 24.7861 12.352C24.4602 12.3743 24.0345 12.375 23.375 12.375C22.7155 12.375 22.2898 12.3743 21.9639 12.352C21.6504 12.3306 21.531 12.294 21.4738 12.2703C21.1369 12.1308 20.8692 11.8631 20.7297 11.5262C20.706 11.469 20.6694 11.3496 20.648 11.0361C20.6257 10.7102 20.625 10.2845 20.625 9.625C20.625 8.96552 20.6257 8.53977 20.648 8.21392C20.6694 7.90042 20.706 7.78103 20.7297 7.72381C20.8692 7.3869 21.1369 7.11922 21.4738 6.97967Z" fill="#2890CF"/>
<path fill-rule="evenodd" clip-rule="evenodd" d="M9.58103 17.875H9.66898C10.2721 17.875 10.7926 17.875 11.2233 17.9044C11.6768 17.9353 12.1304 18.0034 12.5786 18.189C13.5893 18.6077 14.3923 19.4107 14.811 20.4214C14.9966 20.8696 15.0647 21.3232 15.0956 21.7767C15.125 22.2074 15.125 22.7278 15.125 23.331V23.419C15.125 24.0221 15.125 24.5426 15.0956 24.9733C15.0647 25.4268 14.9966 25.8804 14.811 26.3286C14.3923 27.3393 13.5893 28.1423 12.5786 28.561C12.1304 28.7466 11.6768 28.8147 11.2233 28.8456C10.7925 28.875 10.2721 28.875 9.66899 28.875H9.58102C8.97787 28.875 8.45745 28.875 8.02673 28.8456C7.57321 28.8147 7.11958 28.7466 6.67143 28.561C5.66069 28.1423 4.85766 27.3393 4.439 26.3286C4.25337 25.8804 4.1853 25.4268 4.15436 24.9733C4.12497 24.5426 4.12498 24.0222 4.125 23.419V23.331C4.12498 22.7279 4.12497 22.2074 4.15436 21.7767C4.1853 21.3232 4.25337 20.8696 4.439 20.4214C4.85766 19.4107 5.66069 18.6077 6.67143 18.189C7.11958 18.0034 7.57321 17.9353 8.02673 17.9044C8.45744 17.875 8.97791 17.875 9.58103 17.875ZM8.21392 20.648C7.90042 20.6694 7.78103 20.706 7.72381 20.7297C7.3869 20.8692 7.11922 21.1369 6.97967 21.4738C6.95597 21.531 6.91937 21.6504 6.89798 21.9639C6.87575 22.2898 6.875 22.7155 6.875 23.375C6.875 24.0345 6.87575 24.4602 6.89798 24.7861C6.91937 25.0996 6.95597 25.219 6.97967 25.2762C7.11922 25.6131 7.3869 25.8808 7.72381 26.0203C7.78103 26.044 7.90042 26.0806 8.21392 26.102C8.53977 26.1243 8.96552 26.125 9.625 26.125C10.2845 26.125 10.7102 26.1243 11.0361 26.102C11.3496 26.0806 11.469 26.044 11.5262 26.0203C11.8631 25.8808 12.1308 25.6131 12.2703 25.2762C12.294 25.219 12.3306 25.0996 12.352 24.7861C12.3743 24.4602 12.375 24.0345 12.375 23.375C12.375 22.7155 12.3743 22.2898 12.352 21.9639C12.3306 21.6504 12.294 21.531 12.2703 21.4738C12.1308 21.1369 11.8631 20.8692 11.5262 20.7297C11.469 20.706 11.3496 20.6694 11.0361 20.648C10.7102 20.6257 10.2845 20.625 9.625 20.625C8.96552 20.625 8.53977 20.6257 8.21392 20.648Z" fill="#2890CF"/>
<path fill-rule="evenodd" clip-rule="evenodd" d="M23.331 17.875H23.419C24.0221 17.875 24.5426 17.875 24.9733 17.9044C25.4268 17.9353 25.8804 18.0034 26.3286 18.189C27.3393 18.6077 28.1423 19.4107 28.561 20.4214C28.7466 20.8696 28.8147 21.3232 28.8456 21.7767C28.875 22.2075 28.875 22.7279 28.875 23.331V23.419C28.875 24.0221 28.875 24.5425 28.8456 24.9733C28.8147 25.4268 28.7466 25.8804 28.561 26.3286C28.1423 27.3393 27.3393 28.1423 26.3286 28.561C25.8804 28.7466 25.4268 28.8147 24.9733 28.8456C24.5425 28.875 24.0221 28.875 23.419 28.875H23.331C22.7279 28.875 22.2075 28.875 21.7767 28.8456C21.3232 28.8147 20.8696 28.7466 20.4214 28.561C19.4107 28.1423 18.6077 27.3393 18.189 26.3286C18.0034 25.8804 17.9353 25.4268 17.9044 24.9733C17.875 24.5426 17.875 24.0222 17.875 23.419V23.331C17.875 22.7279 17.875 22.2074 17.9044 21.7767C17.9353 21.3232 18.0034 20.8696 18.189 20.4214C18.6077 19.4107 19.4107 18.6077 20.4214 18.189C20.8696 18.0034 21.3232 17.9353 21.7767 17.9044C22.2074 17.875 22.7279 17.875 23.331 17.875ZM21.9639 20.648C21.6504 20.6694 21.531 20.706 21.4738 20.7297C21.1369 20.8692 20.8692 21.1369 20.7297 21.4738C20.706 21.531 20.6694 21.6504 20.648 21.9639C20.6257 22.2898 20.625 22.7155 20.625 23.375C20.625 24.0345 20.6257 24.4602 20.648 24.7861C20.6694 25.0996 20.706 25.219 20.7297 25.2762C20.8692 25.6131 21.1369 25.8808 21.4738 26.0203C21.531 26.044 21.6504 26.0806 21.9639 26.102C22.2898 26.1243 22.7155 26.125 23.375 26.125C24.0345 26.125 24.4602 26.1243 24.7861 26.102C25.0996 26.0806 25.219 26.044 25.2762 26.0203C25.6131 25.8808 25.8808 25.6131 26.0203 25.2762C26.044 25.219 26.0806 25.0996 26.102 24.7861C26.1243 24.4602 26.125 24.0345 26.125 23.375C26.125 22.7155 26.1243 22.2898 26.102 21.9639C26.0806 21.6504 26.044 21.531 26.0203 21.4738C25.8808 21.1369 25.6131 20.8692 25.2762 20.7297C25.219 20.706 25.0996 20.6694 24.7861 20.648C24.4602 20.6257 24.0345 20.625 23.375 20.625C22.7155 20.625 22.2898 20.6257 21.9639 20.648Z" fill="#2890CF"/>
<path fill-rule="evenodd" clip-rule="evenodd" d="M9.58102 4.125H9.66898C10.2721 4.12498 10.7925 4.12497 11.2233 4.15436C11.6768 4.1853 12.1304 4.25337 12.5786 4.439C13.5893 4.85766 14.3923 5.66069 14.811 6.67143C14.9966 7.11958 15.0647 7.57321 15.0956 8.02673C15.125 8.45745 15.125 8.97787 15.125 9.58102V9.66899C15.125 10.2721 15.125 10.7925 15.0956 11.2233C15.0647 11.6768 14.9966 12.1304 14.811 12.5786C14.3923 13.5893 13.5893 14.3923 12.5786 14.811C12.1304 14.9966 11.6768 15.0647 11.2233 15.0956C10.7925 15.125 10.2721 15.125 9.66899 15.125H9.58102C8.97787 15.125 8.45745 15.125 8.02673 15.0956C7.57321 15.0647 7.11958 14.9966 6.67143 14.811C5.66069 14.3923 4.85766 13.5893 4.439 12.5786C4.25337 12.1304 4.1853 11.6768 4.15436 11.2233C4.12497 10.7925 4.12498 10.2721 4.125 9.66898V9.58102C4.12498 8.97788 4.12497 8.45746 4.15436 8.02673C4.1853 7.57321 4.25337 7.11958 4.439 6.67143C4.85766 5.66069 5.66069 4.85766 6.67143 4.439C7.11958 4.25337 7.57321 4.1853 8.02673 4.15436C8.45746 4.12497 8.97788 4.12498 9.58102 4.125ZM8.21392 6.89798C7.90042 6.91937 7.78103 6.95597 7.72381 6.97967C7.3869 7.11922 7.11922 7.3869 6.97967 7.72381C6.95597 7.78103 6.91937 7.90042 6.89798 8.21392C6.87575 8.53977 6.875 8.96552 6.875 9.625C6.875 10.2845 6.87575 10.7102 6.89798 11.0361C6.91937 11.3496 6.95597 11.469 6.97967 11.5262C7.11922 11.8631 7.3869 12.1308 7.72381 12.2703C7.78103 12.294 7.90042 12.3306 8.21392 12.352C8.53977 12.3743 8.96552 12.375 9.625 12.375C10.2845 12.375 10.7102 12.3743 11.0361 12.352C11.3496 12.3306 11.469 12.294 11.5262 12.2703C11.8631 12.1308 12.1308 11.8631 12.2703 11.5262C12.294 11.469 12.3306 11.3496 12.352 11.0361C12.3743 10.7102 12.375 10.2845 12.375 9.625C12.375 8.96552 12.3743 8.53977 12.352 8.21392C12.3306 7.90042 12.294 7.78103 12.2703 7.72381C12.1308 7.3869 11.8631 7.11922 11.5262 6.97967C11.469 6.95597 11.3496 6.91937 11.0361 6.89798C10.7102 6.87575 10.2845 6.875 9.625 6.875C8.96552 6.875 8.53977 6.87575 8.21392 6.89798Z" fill="#2890CF"/>
</svg>
